<svg xmlns="http://www.w3.org/2000/svg" width="559" height="137" viewBox="0 0 559 137">
  <defs>
    <style>
      .cls-1 {
        fill: #fff;
        fill-rule: evenodd;
      }
    </style>
  </defs>
  <path id="Title_editor" class="cls-1" d="M43.309,76.141V96.367a7.509,7.509,0,0,1-2.313,5.9,8.653,8.653,0,0,1-6,2.07,8.311,8.311,0,0,1-5.874-2.08,7.622,7.622,0,0,1-2.251-5.892V76.141H24.418V96.382q0,4.86,2.927,7.454A11.109,11.109,0,0,0,35,106.431a11.43,11.43,0,0,0,7.767-2.584q2.978-2.585,2.978-7.465V76.141H43.309Zm20.652,27.032a6.786,6.786,0,0,1-4.2,1.166,8.168,8.168,0,0,1-4.267-1.082,4.044,4.044,0,0,1-1.955-3.471H51.292l-0.041.123a5.462,5.462,0,0,0,2.18,4.594,9.571,9.571,0,0,0,6.335,1.928,9.486,9.486,0,0,0,5.925-1.718,5.4,5.4,0,0,0,2.241-4.5,5,5,0,0,0-1.965-4.165,15.052,15.052,0,0,0-5.915-2.418,11.27,11.27,0,0,1-4.615-1.755,3.2,3.2,0,0,1-1.156-2.53,3.472,3.472,0,0,1,1.341-2.7,6.033,6.033,0,0,1,4.022-1.153,6.1,6.1,0,0,1,4.165,1.353,4.109,4.109,0,0,1,1.545,3.179h2.272l0.041-.123a5.553,5.553,0,0,0-2.088-4.645A8.884,8.884,0,0,0,59.643,83.4a8.646,8.646,0,0,0-5.659,1.753,5.361,5.361,0,0,0-2.139,4.3,4.7,4.7,0,0,0,1.893,4A15.467,15.467,0,0,0,59.6,95.726a10.393,10.393,0,0,1,4.615,1.9,3.579,3.579,0,0,1,1.279,2.721A3.455,3.455,0,0,1,63.961,103.173ZM86.1,105.654a8.891,8.891,0,0,0,3.162-2.094l-1.044-1.682a7.693,7.693,0,0,1-2.763,1.825,10.693,10.693,0,0,1-3.909.636,6.326,6.326,0,0,1-5.219-2.517,9.8,9.8,0,0,1-1.985-6.262V94.967H89.976V92.875a9.891,9.891,0,0,0-2.333-6.891A8.2,8.2,0,0,0,81.236,83.4a8.472,8.472,0,0,0-6.621,3.138,11.59,11.59,0,0,0-2.732,7.9v1.128a11.245,11.245,0,0,0,2.753,7.793,8.879,8.879,0,0,0,6.908,3.077A12.079,12.079,0,0,0,86.1,105.654ZM85.841,87.435a7.07,7.07,0,0,1,1.7,4.826v0.614H74.564l-0.041-.1a8.925,8.925,0,0,1,2.149-5.2A6.236,6.236,0,0,1,85.841,87.435Zm19.913-3.809a6.712,6.712,0,0,0-.727-0.154,5.666,5.666,0,0,0-.911-0.072,6.468,6.468,0,0,0-3.847,1.148,7.968,7.968,0,0,0-2.579,3.2V87.5l-0.307-3.691H95.234V106H97.69V90.681A7.182,7.182,0,0,1,99.808,87.1a5.545,5.545,0,0,1,3.8-1.3l1.821,0.123Zm35.42,8.2H130.8v2.092h7.921V101.7a6.692,6.692,0,0,1-2.835,1.812,13.622,13.622,0,0,1-5.045.829,8.57,8.57,0,0,1-6.795-2.992,11.263,11.263,0,0,1-2.6-7.664V88.171a11.2,11.2,0,0,1,2.446-7.459,8.019,8.019,0,0,1,6.457-2.91,8.248,8.248,0,0,1,5.833,1.856,8.45,8.45,0,0,1,2.518,4.85h2.271l0.041-.123a9.467,9.467,0,0,0-3.141-6.265q-2.712-2.409-7.522-2.41a10.556,10.556,0,0,0-8.2,3.486,12.914,12.914,0,0,0-3.162,9.023V93.7a12.893,12.893,0,0,0,3.326,9.188,11.165,11.165,0,0,0,8.524,3.548,15.544,15.544,0,0,0,6.683-1.262,9.074,9.074,0,0,0,3.653-2.717V91.829ZM162.949,106h2.17V83.811h-2.456V99.633a6.517,6.517,0,0,1-2.313,3.452,7.186,7.186,0,0,1-4.441,1.254,4.686,4.686,0,0,1-3.92-1.767q-1.381-1.767-1.381-5.836V83.811h-2.456V96.669q0,5,1.985,7.383a6.757,6.757,0,0,0,5.485,2.379,8.273,8.273,0,0,0,4.257-1.056,7.653,7.653,0,0,0,2.866-3Zm11.027-22.189h-2.435V106h2.435V83.811Zm0-9.8h-2.435v3.445h2.435V74.008Zm6.3,21.513a12.859,12.859,0,0,0,2.241,7.947,7.35,7.35,0,0,0,6.212,2.964,8.462,8.462,0,0,0,4.093-.944,7.593,7.593,0,0,0,2.845-2.707l0.2,3.22h2.17V74.008H195.6V87.174a8.109,8.109,0,0,0-2.824-2.789,7.865,7.865,0,0,0-4.012-.984,7.212,7.212,0,0,0-6.252,3.189,14.511,14.511,0,0,0-2.241,8.5v0.431Zm2.456-.43a13.16,13.16,0,0,1,1.627-6.931,5.329,5.329,0,0,1,4.861-2.667,6.307,6.307,0,0,1,4.011,1.205,7.894,7.894,0,0,1,2.374,3.141V100.3a7.084,7.084,0,0,1-2.466,2.966,6.919,6.919,0,0,1-3.96,1.071,5.441,5.441,0,0,1-4.841-2.389,11.361,11.361,0,0,1-1.606-6.427V95.091ZM217.1,105.654a8.885,8.885,0,0,0,3.162-2.094l-1.044-1.682a7.688,7.688,0,0,1-2.763,1.825,10.692,10.692,0,0,1-3.909.636,6.327,6.327,0,0,1-5.219-2.517,9.8,9.8,0,0,1-1.985-6.262V94.967h15.637V92.875a9.89,9.89,0,0,0-2.334-6.891,8.194,8.194,0,0,0-6.406-2.584,8.473,8.473,0,0,0-6.621,3.138,11.592,11.592,0,0,0-2.732,7.9v1.128a11.242,11.242,0,0,0,2.753,7.793,8.878,8.878,0,0,0,6.907,3.077A12.08,12.08,0,0,0,217.1,105.654Zm-0.256-18.219a7.067,7.067,0,0,1,1.7,4.826v0.614H205.564l-0.041-.1a8.928,8.928,0,0,1,2.149-5.2A6.236,6.236,0,0,1,216.841,87.435Zm-169.6-62.01a12.793,12.793,0,0,0-3.387-9.1,11.492,11.492,0,0,0-8.791-3.62,10.877,10.877,0,0,0-8.483,3.63,13.078,13.078,0,0,0-3.265,9.085v5.311a13.031,13.031,0,0,0,3.265,9.085,10.906,10.906,0,0,0,8.483,3.609,11.506,11.506,0,0,0,8.791-3.609,12.756,12.756,0,0,0,3.387-9.085V25.425Zm-4.032,5.311a10.17,10.17,0,0,1-2.2,6.778,7.367,7.367,0,0,1-5.946,2.615A6.822,6.822,0,0,1,29.443,37.5a10.5,10.5,0,0,1-2.1-6.767V25.384a10.439,10.439,0,0,1,2.1-6.727,6.823,6.823,0,0,1,5.618-2.625A7.362,7.362,0,0,1,41,18.657a10.086,10.086,0,0,1,2.21,6.727v5.352Zm12.586-9.926H51.146L58.33,31.782,50.941,43h4.666l4.912-8.388L65.432,43h4.626L62.669,31.782l7.184-10.972H65.145l-4.707,8.183Zm20.243,0h-4.5L79.76,42.549,78.8,44.866a11.949,11.949,0,0,1-1.371,2.543,2.488,2.488,0,0,1-2.108,1.148q-0.225,0-1.075-.062a5.35,5.35,0,0,0-.727-0.041l-0.409,3.179q0.409,0.1,1.167.215a8.819,8.819,0,0,0,1.249.113A5.531,5.531,0,0,0,79.75,50.3a11.515,11.515,0,0,0,2.4-3.9l9.312-25.594H86.985L81.54,37.565H81.418L80.7,34.776ZM94.047,32.746a12.106,12.106,0,0,0,2.333,7.731,7.718,7.718,0,0,0,6.406,2.953,8.132,8.132,0,0,0,3.479-.707,7.049,7.049,0,0,0,2.6-2.1v2.5a5.572,5.572,0,0,1-1.341,4.091,5.867,5.867,0,0,1-4.288,1.343,12.6,12.6,0,0,1-3.029-.379,10.343,10.343,0,0,1-2.62-.995l-1.023,3.138a13.485,13.485,0,0,0,3.264,1.2,14.954,14.954,0,0,0,3.448.441q4.666,0,7.143-2.287a8.476,8.476,0,0,0,2.477-6.552V20.811h-3.214L109.192,23.7a7.293,7.293,0,0,0-2.661-2.451,7.758,7.758,0,0,0-3.7-.851,7.477,7.477,0,0,0-6.447,3.281,14.587,14.587,0,0,0-2.333,8.634v0.431Zm4.032-.431A12.066,12.066,0,0,1,99.511,26.1a4.7,4.7,0,0,1,4.319-2.42,5.305,5.305,0,0,1,3.008.831,6.263,6.263,0,0,1,2.027,2.246V36.971a6.3,6.3,0,0,1-2.027,2.348,5.319,5.319,0,0,1-3.049.831,4.881,4.881,0,0,1-4.3-2.03,9.235,9.235,0,0,1-1.412-5.373V32.315Zm34.745,10.331a9.351,9.351,0,0,0,3.131-1.961l-1.576-2.628a8.247,8.247,0,0,1-2.671,1.61,10.121,10.121,0,0,1-3.592.584,5.152,5.152,0,0,1-4.359-2.055,8.743,8.743,0,0,1-1.617-5.246l0.061-.1h14.368V30.326a10.8,10.8,0,0,0-2.292-7.219Q131.985,20.4,127.5,20.4a8.662,8.662,0,0,0-6.662,3.148,11.393,11.393,0,0,0-2.814,7.885v0.9a11.631,11.631,0,0,0,2.733,8.008,9.331,9.331,0,0,0,7.357,3.086A12.593,12.593,0,0,0,132.824,42.646Zm-1.556-17.473a6.167,6.167,0,0,1,1.269,3.965V29.67H122.324l-0.041-.1a8.079,8.079,0,0,1,1.76-4.282,4.371,4.371,0,0,1,3.459-1.707A4.524,4.524,0,0,1,131.268,25.173Zm9.659-4.363V43h4.032V26.819a6.14,6.14,0,0,1,2.138-2.3,5.678,5.678,0,0,1,3.081-.841,4.627,4.627,0,0,1,3.53,1.23q1.157,1.23,1.157,4.163V43H158.9V28.993q0-4.388-1.965-6.491a7.222,7.222,0,0,0-5.547-2.1,7.388,7.388,0,0,0-3.8.974,8.045,8.045,0,0,0-2.774,2.738l-0.286-3.3h-3.6Zm37.459-7.67h-4.831l9.456,14.807L173.351,43h4.871l7.163-11.853L192.528,43h4.81l-9.66-15.053,9.455-14.807h-4.871L185.3,24.789Zm24.3,0V43h4.032V31.187l-0.389-12.079,0.1-.02L216.049,43h2.681l9.66-23.974,0.1,0.021-0.41,12.141V43h4.032V13.141h-5.157l-9.5,24.261h-0.123l-9.5-24.261h-5.158Zm41.032,0h-4.032V43h18.134V39.821h-14.1V13.141Zm46.651,12.838H276.716V16.319H292.23V13.141H272.684V43h19.771V39.821H276.716V29.157h13.651V25.979Zm4.639,6.768a12.248,12.248,0,0,0,2.292,7.742,7.593,7.593,0,0,0,6.345,2.943,7.992,7.992,0,0,0,3.663-.8,7.178,7.178,0,0,0,2.661-2.358L310.438,43h3.3V11.008H309.7v12.2a7.08,7.08,0,0,0-2.569-2.092,7.915,7.915,0,0,0-3.448-.718,7.348,7.348,0,0,0-6.4,3.281,14.826,14.826,0,0,0-2.282,8.634v0.431Zm4.032-.431a12.407,12.407,0,0,1,1.381-6.234,4.606,4.606,0,0,1,4.288-2.4,5.321,5.321,0,0,1,2.978.81,6.229,6.229,0,0,1,2.016,2.184V37.032a6.123,6.123,0,0,1-2.006,2.3,5.332,5.332,0,0,1-3.029.82,4.784,4.784,0,0,1-4.257-2.02,9.434,9.434,0,0,1-1.371-5.383V32.315Zm25.248-11.5h-4.032V43h4.032V20.811Zm0-9.8h-4.032V15.13h4.032V11.008Zm7.93,4.45v5.353H328.7V23.8h3.52V37.278a6.464,6.464,0,0,0,1.453,4.666,5.216,5.216,0,0,0,3.909,1.487,6.669,6.669,0,0,0,1.75-.236,3.555,3.555,0,0,0,1.32-.605l-0.532-2.768a4.645,4.645,0,0,1-.747.2,4.006,4.006,0,0,1-.767.082,2.327,2.327,0,0,1-1.709-.636,3.019,3.019,0,0,1-.645-2.194V23.8h4.2V20.811h-4.2V15.458h-4.032Zm11.769,16.693a12.155,12.155,0,0,0,2.671,8.111,9.891,9.891,0,0,0,14.5.01,12.176,12.176,0,0,0,2.661-8.121V31.7a12.2,12.2,0,0,0-2.671-8.121,9.848,9.848,0,0,0-14.5.01,12.231,12.231,0,0,0-2.661,8.111v0.451Zm4.032-.461a10.544,10.544,0,0,1,1.484-5.8,4.862,4.862,0,0,1,4.37-2.314,4.929,4.929,0,0,1,4.41,2.314,10.43,10.43,0,0,1,1.5,5.8v0.451a10.471,10.471,0,0,1-1.494,5.817,5.358,5.358,0,0,1-8.791,0,10.519,10.519,0,0,1-1.484-5.817V31.69Zm31.941-11.064a5.763,5.763,0,0,0-.675-0.154,4.994,4.994,0,0,0-.86-0.072,5.422,5.422,0,0,0-3.182.964,7.692,7.692,0,0,0-2.323,2.686l-0.389-3.24h-3.6V43h4.032V27.147a4.862,4.862,0,0,1,1.688-2.133,4.613,4.613,0,0,1,2.692-.759l2.067,0.123Zm23.98-7.485-10.131,1.107V17.16l6.1-.082V43h4.032V13.141Zm28.247,1.712a9.482,9.482,0,0,0-6.417-2.143,9.336,9.336,0,0,0-6.416,2.143,7.686,7.686,0,0,0-2.425,6.08,6.794,6.794,0,0,0,1.269,4.091,7.548,7.548,0,0,0,3.5,2.615,8.724,8.724,0,0,0-4.094,2.83,7,7,0,0,0-1.514,4.45,7.7,7.7,0,0,0,2.671,6.327,12.374,12.374,0,0,0,14.04,0,7.674,7.674,0,0,0,2.691-6.327,6.913,6.913,0,0,0-1.545-4.45,8.926,8.926,0,0,0-4.124-2.83,7.819,7.819,0,0,0,3.541-2.615,6.649,6.649,0,0,0,1.309-4.091A7.591,7.591,0,0,0,432.185,14.853ZM429.9,38.8a6.568,6.568,0,0,1-8.228.01,5.163,5.163,0,0,1-1.555-3.982,5.383,5.383,0,0,1,5.648-5.609,5.626,5.626,0,0,1,4.094,1.576,5.392,5.392,0,0,1,1.617,4.032A5.139,5.139,0,0,1,429.9,38.8Zm-0.614-14.133a5.132,5.132,0,0,1-6.99,0,5,5,0,0,1-1.34-3.65,5.19,5.19,0,0,1,1.33-3.722,4.959,4.959,0,0,1,6.969.051,5.121,5.121,0,0,1,1.381,3.671A4.983,4.983,0,0,1,429.289,24.666Zm16.038,14.15H441.3V43h4.032V38.816Zm17.611-25.676-10.131,1.107V17.16l6.1-.082V43h4.032V13.141Z"/>
</svg>
